<?xml version="1.0" encoding="utf-8"?>
<!-- Generator: Adobe Illustrator 21.1.0, SVG Export Plug-In . SVG Version: 6.00 Build 0)  -->
<svg version="1.1" id="Layer_1" xmlns="http://www.w3.org/2000/svg" xmlns:xlink="http://www.w3.org/1999/xlink" x="0px" y="0px"
	 viewBox="0 0 242 242" style="enable-background:new 0 0 242 242;" xml:space="preserve">
<style type="text/css">
	.st0{fill:#006A76;}
	.st1{fill:#FFFFFF;}
</style>
<circle class="st0" cx="121" cy="121" r="121"/>
<title>R</title>
<rect x="84.6" y="65" class="st1" width="3.6" height="112.1"/>
<rect x="98.4" y="65" class="st1" width="3.6" height="112.1"/>
<path class="st1" d="M134,142.7c-5.7,2.8-11.9,4.5-18.2,4.9v-10.2c6.4-0.6,27.6-4.5,27.6-29.3s-21.2-28.7-27.6-29.3V68.6
	c7.8,0.5,37.8,4.8,37.8,39.5C153.6,124.5,147,136.1,134,142.7 M115.8,123.6c5.6-0.7,13.8-4.4,13.8-15.5s-8.2-14.8-13.8-15.5V82.4
	c5.9,0.5,24,3.9,24,25.7s-18.1,25.2-24,25.7L115.8,123.6z M115.8,96.3c3.4,0.5,10.2,2.7,10.2,11.8s-6.8,11.3-10.2,11.8V96.3z
	 M140.1,143.2c9.1-6.1,17.1-16.6,17.1-35.1c0-42.7-42.8-43.2-43.2-43.2h-1.8v112.2h3.6v-19.9l10,19.9h4l-13-25.9
	c2.9-0.3,5.7-0.8,8.5-1.5l14.2,27.4h4.1l-14.8-28.5c2.8-0.9,5.5-2.1,8.1-3.5l16.4,32h4.1L140.1,143.2z"/>
</svg>
