<svg xmlns="http://www.w3.org/2000/svg" viewBox="0 0 120 120"><defs><style>.a{fill:#fff;}</style></defs><title>R</title><rect class="a" x="23.59" y="4" width="3.62" height="112.12"/><rect class="a" x="37.4" y="4" width="3.62" height="112.12"/><path class="a" d="M73,81.66a50.6,50.6,0,0,1-18.2,4.95V76.4c6.39-.6,27.61-4.47,27.61-29.3S61.21,18.4,54.82,17.8V7.57c7.85.52,37.79,4.77,37.79,39.53,0,16.38-6.59,28-19.6,34.56M54.82,62.59c5.59-.66,13.8-4.41,13.8-15.49s-8.21-14.84-13.8-15.49V21.41c5.9.53,24,3.95,24,25.7s-18.09,25.16-24,25.7Zm0-27.31C58.18,35.82,65,38,65,47.1S58.18,58.38,54.82,58.92ZM79.1,82.21c9.12-6.05,17.13-16.62,17.13-35.11C96.23,4.37,53.44,3.88,53,3.88H51.2V116.12h3.62V96.18l10,19.88h4.05l-13-25.92a57.06,57.06,0,0,0,8.48-1.51l14.24,27.43h4.08L67.87,87.6A49.08,49.08,0,0,0,76,84.09l16.35,32h4.07Z"/></svg>