<?xml version="1.0" encoding="utf-8"?>
<!-- Generator: Adobe Illustrator 21.1.0, SVG Export Plug-In . SVG Version: 6.00 Build 0)  -->
<svg version="1.1" id="Layer_1" xmlns:svg="http://www.w3.org/2000/svg"
	 xmlns="http://www.w3.org/2000/svg" xmlns:xlink="http://www.w3.org/1999/xlink" x="0px" y="0px" viewBox="0 0 134 29"
	 style="enable-background:new 0 0 134 29;" xml:space="preserve">
<style type="text/css">
	.st0{fill:#FFFFFF;}
</style>
<g id="g3" transform="matrix(0.982609,0,0,0.982609,1.1014418,0.2332481)">
	<path id="path5" class="st0" d="M43.2,7.9c-5.3,0-9.3,3.9-9.3,9.2c0,5.3,3.9,9.2,9.3,9.2s9.3-3.9,9.3-9.2
		C52.4,11.8,48.5,7.9,43.2,7.9 M44.4,24.1c-2.7,0.5-4.8-2.1-5.5-6.3c-0.7-4.2,0.4-7.4,3-7.8c2.7-0.5,4.8,2.1,5.6,6.3
		C48.2,20.6,47.1,23.7,44.4,24.1"/>
	<path id="path7" class="st0" d="M124.8,7.9c-5.3,0-9.3,3.9-9.3,9.2c0,5.3,3.9,9.2,9.3,9.2c5.3,0,9.3-3.9,9.3-9.2
		C134,11.8,130.1,7.9,124.8,7.9 M126,24.1c-2.7,0.5-4.8-2.1-5.5-6.3c-0.7-4.2,0.4-7.4,3-7.8c2.7-0.5,4.8,2.1,5.6,6.3
		C129.8,20.6,128.7,23.7,126,24.1"/>
	<path id="path9" class="st0" d="M96.6,12.5c0.2,0.6,0.3,1.3,0.3,2.1c0,1.3,0,8.8,0,11.3h6.7c0,0,0-1.1,0-1.2c-1,0-2.2-0.5-2.2-2.7
		c0-0.4,0-5.1,0-8.4c0-4.6-3.8-5.7-5.8-5.7c-3.2,0-5,1.9-5.6,3.1c0,0-0.1-2.3-0.1-2.7h-6.5v1.2c0.9,0,2.2,0.5,2.2,2.7
		c0,1.3,0,7.4,0,9.9c0,2.2-1.2,2.7-2.2,2.7c0,0.2,0,1.2,0,1.2h8.9c0,0,0-1.1,0-1.2c-1,0-2.2-0.5-2.2-2.7c0-0.4,0-3.4,0-6.4
		c0-1.3,0.2-2.3,0.6-3c0.7-1.3,1.9-1.9,3-1.9C95.1,10.7,96.1,11.2,96.6,12.5"/>
	<path id="path11" class="st0" d="M113.5,25.9c0,0,0-1.1,0-1.2c-1,0-2.2-0.5-2.2-2.7c0-0.4,0-11.8,0-11.8h2.5V8.3h-2.5v-4
		c0,0-2,0-2.4,0c0,2.7-2.5,4.6-4.5,4.6v1.2l2.3,0c0,1.3,0,9.5,0,11.9c0,2.7,1,3.8,4,3.8C112,25.9,113.5,25.9,113.5,25.9"/>
	<path id="path13" class="st0" d="M66.4,3.2c0,0,0,17.7,0,18.6c0,2.2,1.2,2.7,2.2,2.7c0,0.1,0,1.4,0,1.4h-9.2c0,0,0-1.4,0-1.4
		c0.9,0,2.2-0.5,2.2-2.7c0-3.9,0-17.6,0-18.6c-0.5,0-1.3,0-2.2,0c-2.7,0-3.6,0.7-3.6,2.7c-0.3,0-1.6,0-1.6,0l0-5.2h19.5l0,5.2h-1.5
		c0-2-0.9-2.7-3.6-2.7C67.8,3.2,66.4,3.2,66.4,3.2"/>
	<path id="path15" class="st0" d="M7,3.2c0,1.4,0,2.6,0,5.6v5.8c0,3.8,0,6.8,0,7.2c0,2.2,1.2,2.7,2.2,2.7c0,0.1,0,1.4,0,1.4H0
		c0,0,0-1.4,0-1.4c0.9,0,2.2-0.5,2.2-2.7c0-1.4,0-4,0-7V9c0-3.8,0-3.8,0-4.2C2.2,2.6,1,2.2,0,2.2C0,2,0,0.7,0,0.7h11.4
		c7,0,8.6,3.7,8.6,6.6c0,3.3-2.3,5.4-5.6,6c3.5,0.2,5.5,9,8,12.3c0.3,0.4,1.2,1.2,2.2,1.2c0,0,0.1,0,0.1,0c0,0.3,0,1.5,0,1.5H22
		c-2,0-4-0.9-4.9-2.1c-3-4-4.1-12.3-7.7-12.6c-0.1,0-0.3,0-0.3,0c0-0.4,0-1.5,0-1.5c0.1,0,0.3,0,0.3,0c4.5-0.1,5.3-2.5,5.3-4.5
		c0-2.3-0.8-4.4-4.9-4.4C9.1,3.2,7,3.2,7,3.2"/>
	<path id="path17" class="st0" d="M80,4.5c0,1.2-1.1,2.1-2.5,2.1c-1.4,0-2.5-0.9-2.5-2.1c0-1.2,1.1-2.1,2.5-2.1
		C78.8,2.4,80,3.3,80,4.5"/>
	<path id="path19" class="st0" d="M82.2,25.9c0,0,0-1.1,0-1.2c-1,0-2.2-0.5-2.2-2.7c0-0.9,0-13.7,0-13.7h-6.7v1.2
		c0.9,0,2.2,0.5,2.2,2.7c0,0.9,0,6,0,9.8c0,2.2-1.2,2.7-2.2,2.7c0,0.1,0,1.2,0,1.2H82.2"/>
	<path id="path21" class="st0" d="M25.2,25.9c0-2.4,0-12.4,0-13.8c0-2.2-1.2-2.7-2.2-2.7V8.3h6.7c0,0,0,12.8,0,13.7
		c0,2.2,1.2,2.7,2.2,2.7c0,0.1,0,1.2,0,1.2H25.2"/>
	<path id="path23" class="st0" d="M29.8,4.5c0,1.2-1.1,2.1-2.5,2.1c-1.4,0-2.5-0.9-2.5-2.1c0-1.2,1.1-2.1,2.5-2.1
		C28.7,2.4,29.8,3.3,29.8,4.5"/>
</g>
</svg>
